<?xml version="1.0" encoding="UTF-8" standalone="no"?>
<!-- Uploaded to: SVG Repo, www.svgrepo.com, Generator: SVG Repo Mixer Tools -->

<svg
   width="800px"
   height="800px"
   viewBox="0 0 32 32"
   version="1.1"
   id="svg4"
   fill="currentColor"
   xmlns="http://www.w3.org/2000/svg"
   xmlns:svg="http://www.w3.org/2000/svg">
  <path
     d="m 3.290097,16.092611 v 12.67685 H 28.895126 V 3.4157618 H 3.290097 Z m 20.632852,-1.010978 c 0.650528,0.160837 1.145826,0.450028 1.604316,0.915902 0.233645,0.247199 0.583314,0.701188 0.61292,0.812903 0.008,0.03328 -1.104217,0.771703 -1.779549,1.184493 -0.02481,0.01663 -0.124825,-0.08636 -0.233647,-0.247991 -0.328864,-0.474589 -0.675332,-0.680588 -1.204236,-0.717826 -0.775353,-0.04991 -1.275451,0.35099 -1.27145,1.023656 -0.004,0.164798 0.03361,0.33039 0.108022,0.474589 0.171233,0.35099 0.492096,0.56095 1.483491,0.986417 1.83396,0.779627 2.617314,1.295416 3.104609,2.025919 0.545708,0.816865 0.666531,2.120995 0.300059,3.094736 -0.40808,1.052178 -1.417078,1.770006 -2.834157,2.005319 -0.437685,0.07844 -1.479489,0.06576 -1.950782,-0.0206 -1.029003,-0.181437 -2.004394,-0.685342 -2.604512,-1.345331 -0.237647,-0.255914 -0.696136,-0.928578 -0.66653,-0.97374 0.0128,-0.01664 0.116823,-0.0824 0.233645,-0.148953 0.116823,-0.06656 0.545707,-0.313752 0.950587,-0.545104 l 0.737745,-0.424675 0.15443,0.226599 c 0.216843,0.325636 0.687335,0.771703 0.971391,0.919863 0.816961,0.429429 1.93798,0.367629 2.492489,-0.123599 0.224844,-0.185398 0.350469,-0.470628 0.333666,-0.759026 0,-0.293153 -0.03761,-0.424674 -0.192038,-0.644142 -0.200039,-0.280476 -0.604118,-0.519751 -1.758745,-1.01494 -1.32106,-0.565705 -1.892372,-0.911941 -2.408473,-1.468931 -0.324864,-0.367629 -0.566512,-0.800226 -0.704138,-1.266893 -0.09602,-0.358913 -0.120824,-1.258969 -0.04561,-1.617882 0.271254,-1.266893 1.237843,-2.145557 2.625316,-2.405432 0.450488,-0.08636 1.500294,-0.05387 1.941981,0.05387 z m -6.00918,1.060894 0.008,1.035539 H 14.5875 v 9.380077 H 12.228653 V 17.178066 H 8.8991987 v -1.01494 c 0,-0.565704 0.012803,-1.03554 0.028805,-1.048216 0.012803,-0.01664 2.0380003,-0.02456 4.4968843,-0.0206 l 4.476079,0.01267 z"
     id="path2"
     style="stroke-width:0.79622" />
</svg>
